<?xml version="1.0" encoding="UTF-8" standalone="no"?>
<!-- Generator: Adobe Illustrator 19.1.0, SVG Export Plug-In . SVG Version: 6.00 Build 0)  -->

<svg
   xmlns:dc="http://purl.org/dc/elements/1.1/"
   xmlns:cc="http://creativecommons.org/ns#"
   xmlns:rdf="http://www.w3.org/1999/02/22-rdf-syntax-ns#"
   xmlns:svg="http://www.w3.org/2000/svg"
   xmlns="http://www.w3.org/2000/svg"
   xmlns:sodipodi="http://sodipodi.sourceforge.net/DTD/sodipodi-0.dtd"
   xmlns:inkscape="http://www.inkscape.org/namespaces/inkscape"
   version="1.1"
   id="Capa_1"
   x="0px"
   y="0px"
   viewBox="0 0 599.644 599.644"
   style="enable-background:new 0 0 599.644 599.644;"
   xml:space="preserve"
   inkscape:version="0.91 r13725"
   sodipodi:docname="HorariosRmtc.svg"><metadata
     id="metadata45"><rdf:RDF><cc:Work
         rdf:about=""><dc:format>image/svg+xml</dc:format><dc:type
           rdf:resource="http://purl.org/dc/dcmitype/StillImage" /></cc:Work></rdf:RDF></metadata><defs
     id="defs43" /><sodipodi:namedview
     pagecolor="#ffffff"
     bordercolor="#666666"
     borderopacity="1"
     objecttolerance="10"
     gridtolerance="10"
     guidetolerance="10"
     inkscape:pageopacity="0"
     inkscape:pageshadow="2"
     inkscape:window-width="1536"
     inkscape:window-height="801"
     id="namedview41"
     showgrid="false"
     inkscape:zoom="0.39356686"
     inkscape:cx="15.245186"
     inkscape:cy="299.82199"
     inkscape:window-x="-8"
     inkscape:window-y="-8"
     inkscape:window-maximized="1"
     inkscape:current-layer="g7" /><g
     id="g3"><g
       id="g5"><g
         id="g7"><path
           style="fill:#009688;fill-opacity:1"
           d="M424.934,146.074h-252.52v74.263h19.13l-0.059-1.632c0-12.662,10.268-22.97,23.048-22.97     c12.633,0,22.911,10.308,22.911,22.97l-0.068,1.632h106.847l-0.068-1.632c0-12.662,10.327-22.97,23.048-22.97     c12.652,0,22.96,10.308,22.96,22.97l-0.098,1.632h44.093v-33.375L424.934,146.074z M200.65,182.126h-21.221l0.059-29.848     l21.162,0.039C200.65,152.317,200.65,182.126,200.65,182.126z M244.059,182.126h-38.377v-29.799l38.377,0.049V182.126z      M287.536,182.126H249.12v-29.75l38.416,0.068V182.126z M330.964,214.26h-38.406v-61.826l38.406,0.176V214.26z M374.402,182.126     h-38.397v-29.613l38.397,0.088V182.126z M379.454,182.126V152.6l41.846,0.088l6.39,29.447     C427.699,182.126,379.454,182.126,379.454,182.126z M309.9,209.287h-12.125v-53.423H309.9V209.287z M299.827,0     C195.511,0,110.93,84.571,110.93,188.906c0,104.306,188.896,410.738,188.896,410.738s188.887-306.431,188.887-410.738     C488.713,84.58,404.133,0,299.827,0z M299.827,335.058c-80.604,0-146.181-65.558-146.181-146.152S219.223,42.744,299.827,42.744     s146.152,65.568,146.152,146.162C445.979,269.49,380.431,335.058,299.827,335.058z M214.543,200.552     c-10.132,0-18.241,8.148-18.241,18.124c0,10.102,8.119,18.231,18.241,18.231c9.966,0,18.075-8.129,18.075-18.231     C232.618,208.7,224.509,200.552,214.543,200.552z M214.504,226.775c-4.494,0-8.09-3.586-8.09-8.07     c0-4.436,3.595-8.031,8.09-8.031c4.416,0,8.002,3.595,8.002,8.031C222.506,223.19,218.92,226.775,214.504,226.775z      M367.202,200.552c-10.073,0-18.173,8.148-18.173,18.124c0,10.102,8.099,18.231,18.173,18.231     c9.985,0,18.133-8.129,18.133-18.231C385.345,208.7,377.197,200.552,367.202,200.552z M367.153,226.775     c-4.465,0-8.051-3.586-8.051-8.07c0-4.436,3.605-8.031,8.051-8.031c4.465,0,8.031,3.595,8.031,8.031     C375.184,223.19,371.618,226.775,367.153,226.775z M326.499,209.287h-12.643v-53.423h12.643V209.287z"
           id="path9" /></g></g></g><g
     id="g11" /><g
     id="g13" /><g
     id="g15" /><g
     id="g17" /><g
     id="g19" /><g
     id="g21" /><g
     id="g23" /><g
     id="g25" /><g
     id="g27" /><g
     id="g29" /><g
     id="g31" /><g
     id="g33" /><g
     id="g35" /><g
     id="g37" /><g
     id="g39" /></svg>